<svg xmlns="http://www.w3.org/2000/svg" viewBox="0 0 100 100">
  <circle cx="50" cy="50" r="48" fill="#2d5a27"/>
  <g transform="translate(12, 82) scale(0.015, -0.015)" fill="#ffffff">
    <path d="M3385 4071 c-88 -40 -143 -137 -129 -229 9 -60 59 -131 114 -160 63 -33 159 -29 218 11 97 64 127 195 67 292 -56 91 -176 129 -270 86z"/>
    <path d="M2960 3773 c-126 -21 -262 -70 -374 -135 -173 -101 -208 -183 -138 -326 20 -41 52 -75 151 -160 68 -59 131 -111 138 -117 10 -8 -15 -58 -112 -229 -134 -235 -140 -256 -105 -314 44 -72 143 -77 194 -9 13 18 87 144 165 282 148 261 157 286 127 343 -8 15 -67 72 -131 126 l-116 99 29 13 c16 6 68 24 116 40 l86 28 0 94 c0 104 13 141 55 160 42 19 74 14 106 -17 27 -27 29 -35 29 -103 l1 -73 39 42 c33 35 40 49 40 82 0 52 -11 79 -46 115 -57 57 -144 77 -254 59z"/>
    <path d="M1477 3266 c-21 -8 -56 -26 -77 -40 l-40 -26 -122 25 c-68 14 -166 28 -218 32 -113 7 -144 -1 -420 -102 l-185 -68 -180 -8 c-173 -7 -235 -17 -235 -38 0 -19 95 -83 195 -132 140 -69 258 -101 370 -102 85 -1 95 1 180 40 50 22 119 50 155 62 56 18 272 71 292 71 4 0 4 -24 1 -53 -7 -68 16 -157 67 -264 21 -46 44 -108 49 -140 13 -65 14 -192 3 -209 -4 -7 -42 -15 -84 -19 -52 -5 -97 -16 -135 -35 -68 -32 -243 -162 -437 -324 l-139 -116 -84 0 -83 0 0 -175 c0 -96 4 -175 8 -175 17 0 103 63 121 88 10 15 30 53 45 84 43 90 141 163 346 254 72 31 118 45 167 49 l68 6 -52 -48 c-49 -45 -56 -57 -103 -187 -39 -107 -71 -172 -142 -288 l-91 -150 -78 7 c-70 6 -82 5 -114 -15 l-35 -22 0 -84 c0 -79 1 -84 21 -84 40 0 204 61 257 96 64 42 134 135 199 261 37 74 59 103 107 145 34 29 138 144 233 256 l172 204 120 -1 c213 -3 303 27 433 148 l70 65 77 -42 c278 -154 566 -285 700 -317 64 -16 82 -17 156 -6 46 7 135 31 197 52 166 58 149 58 191 -3 20 -29 88 -170 153 -313 111 -248 117 -266 140 -391 12 -73 30 -148 38 -168 l15 -35 43 13 c157 48 248 80 248 86 0 3 -17 31 -37 60 -35 49 -44 55 -102 71 -35 10 -65 19 -66 21 -9 11 -201 684 -196 686 10 3 348 -112 414 -142 50 -22 141 -98 363 -303 l91 -84 33 -106 33 -105 106 7 c58 4 107 8 108 9 2 2 -14 41 -35 88 -33 76 -46 93 -124 164 -47 43 -137 137 -200 209 -232 267 -275 304 -545 475 -57 36 -102 72 -102 80 0 8 19 109 42 224 l42 209 44 17 43 17 -93 17 c-147 28 -345 80 -452 120 -90 34 -99 36 -119 21 -13 -8 -38 -15 -57 -15 -48 0 -91 49 -153 179 -61 125 -56 117 -70 103 -8 -8 -8 -18 1 -40 16 -39 -1 -297 -25 -369 -30 -93 -108 -163 -181 -163 -24 0 -34 -10 -66 -65 -41 -71 -79 -98 -137 -98 -84 0 -135 55 -135 147 l0 59 -65 22 c-211 72 -372 193 -401 298 -20 74 2 137 73 213 46 49 58 68 50 76 -24 24 -162 39 -392 44 -188 4 -243 2 -273 -10z"/>
  </g>
</svg>